<?xml version="1.0" encoding="UTF-8"?>
<svg viewBox="0 0 133.72029 204.20615" xmlns="http://www.w3.org/2000/svg" xmlns:xlink="http://www.w3.org/1999/xlink">
 <defs>
  <linearGradient id="b">
   <stop stop-color="#a6caf6" offset="0"/>
   <stop stop-color="#819acc" stop-opacity="0" offset="1"/>
  </linearGradient>
  <linearGradient id="a">
   <stop stop-color="#fff" offset="0"/>
   <stop stop-color="#fff" stop-opacity="0" offset="1"/>
  </linearGradient>
  <linearGradient id="c">
   <stop offset="0"/>
   <stop stop-color="#fff" offset="1"/>
  </linearGradient>
  <linearGradient id="h">
   <stop stop-color="#2e3436" offset="0"/>
   <stop stop-color="#2e3436" stop-opacity="0" offset="1"/>
  </linearGradient>
  <linearGradient id="ae" x1="63.672" x2="96.185" gradientUnits="userSpaceOnUse" spreadMethod="reflect">
   <stop stop-color="#adb6c0" offset="0"/>
   <stop stop-color="#cad1dc" offset=".75"/>
   <stop stop-color="#d7deea" offset="1"/>
  </linearGradient>
  <linearGradient id="z" x1="175.67" x2="215.28" y1="210.62" y2="206.37" gradientTransform="matrix(0 -.33613 .33613 0 47.113 217.58)" gradientUnits="userSpaceOnUse">
   <stop stop-color="#f4f3f2" offset="0"/>
   <stop stop-color="#363637" stop-opacity=".4702" offset="1"/>
  </linearGradient>
  <linearGradient id="y" x1="327.94" x2="327.42" y1="184.75" y2="197.12" gradientTransform="matrix(0 -.093 .33613 0 46.96 153.17)" gradientUnits="userSpaceOnUse">
   <stop stop-color="#555753" offset="0"/>
   <stop stop-color="#555753" stop-opacity="0" offset="1"/>
  </linearGradient>
  <linearGradient id="ad" x2="0" y1="83.634" y2="85.348" gradientUnits="userSpaceOnUse" xlink:href="#c" spreadMethod="reflect"/>
  <linearGradient id="ac" x1="24.261" x2="24.606" y1="44.011" y2="45.888" gradientTransform="matrix(2.2188 0 0 1.826 -.0513 -1.0128)" gradientUnits="userSpaceOnUse" xlink:href="#c" spreadMethod="reflect"/>
  <linearGradient id="ab" x1="17.682" x2="17.425" y1="60.434" y2="62.78" gradientTransform="matrix(2.2188 0 0 1.826 -.0513 -1.0128)" gradientUnits="userSpaceOnUse" xlink:href="#c" spreadMethod="reflect"/>
  <linearGradient id="aa" x2="0" y1="124.4" y2="81.122" gradientUnits="userSpaceOnUse" xlink:href="#a"/>
  <linearGradient id="x" x1="278.16" x2="278.03" y1="206.19" y2="190.19" gradientTransform="matrix(0 -.093 .33613 0 46.96 153.17)" gradientUnits="userSpaceOnUse" xlink:href="#a"/>
  <linearGradient id="w" x1="254.2" x2="247.84" y1="169.01" y2="176.61" gradientTransform="matrix(0 -.33613 .33613 0 47.02 213.99)" gradientUnits="userSpaceOnUse" xlink:href="#h"/>
  <linearGradient id="v" x1="254.2" x2="247.84" y1="169.01" y2="176.61" gradientTransform="matrix(.29404 .16286 -.16286 .29404 82.563 37.134)" gradientUnits="userSpaceOnUse" xlink:href="#h"/>
  <linearGradient id="u" x2="0" y1="44.27" y2="-23.499" gradientUnits="userSpaceOnUse" xlink:href="#a"/>
  <linearGradient id="t" x2="0" y1="43.727" y2="-30.041" gradientUnits="userSpaceOnUse" xlink:href="#a"/>
  <linearGradient id="s" x2="0" y1="21.756" y2="16.82" gradientUnits="userSpaceOnUse" xlink:href="#a"/>
  <linearGradient id="r" x1="38.363" x2="39.724" y1="11.17" y2="6.0918" gradientTransform="matrix(1.6375 0 0 2.4742 33.079 -2.0128)" gradientUnits="userSpaceOnUse" xlink:href="#a"/>
  <linearGradient id="q" x2="0" y1="3.9674" y2="28.538" gradientUnits="userSpaceOnUse" xlink:href="#a"/>
  <pattern id="g" width="8.6875" height="8.15625" patternTransform="translate(201.25 133.47)" patternUnits="userSpaceOnUse">
   <path d="m1.9375.5c-.87814.74537-1.4375,1.85256-1.4375,3.09375 0,2.2425 1.82,4.0625 4.0625,4.0625 1.58189,0 2.95414-.92925 3.625-2.25-.70843.60132-1.62369,1-2.625,1-2.2425,0-4.0625-1.82-4.0625-4.0625 0-.66061.15734-1.2922.4375-1.84375z" fill="#eeeeec" opacity=".3239"/>
  </pattern>
  <pattern id="o" xlink:href="#n" patternTransform="matrix(0 -.33613 .33613 0 91.467 146.71)"/>
  <pattern id="p" xlink:href="#m" patternTransform="matrix(.33613 0 0 .33613 -146.47 91.823)"/>
  <pattern id="n" xlink:href="#g" patternTransform="translate(200.54 132.41)"/>
  <pattern id="m" xlink:href="#g" patternTransform="translate(201.25 133.47)"/>
  <radialGradient id="f" cx="20.361" cy="22.546" r="15.157" gradientTransform="matrix(.43334 0 0 1.435 6.4099 -.11314)" gradientUnits="userSpaceOnUse" xlink:href="#a"/>
  <radialGradient id="e" cx="20.361" cy="22.546" r="15.157" gradientTransform="matrix(.50007 0 0 1.6752 5.003 -5.1082)" gradientUnits="userSpaceOnUse" xlink:href="#a"/>
  <radialGradient id="d" cx="20.361" cy="22.546" r="15.157" gradientTransform="matrix(.6214 0 0 1.8821 2.3888 -9.4094)" gradientUnits="userSpaceOnUse" xlink:href="#a"/>
  <radialGradient id="l" cx="21.595" cy="8.9814" r="6.0679" gradientTransform="matrix(-2.8463 0 0 2.0879 172.66 -5.5862)" gradientUnits="userSpaceOnUse" xlink:href="#b"/>
  <radialGradient id="k" cx="21.595" cy="8.9814" r="6.0679" gradientTransform="matrix(3.085 0 0 2.0529 17.146 -5.1493)" gradientUnits="userSpaceOnUse" xlink:href="#b"/>
  <radialGradient id="j" cx="21.595" cy="8.9814" r="6.0679" gradientTransform="matrix(-2.3666 0 0 1.7265 162.25 -2.1129)" gradientUnits="userSpaceOnUse" xlink:href="#b"/>
  <radialGradient id="i" cx="21.595" cy="8.9814" r="6.0679" gradientTransform="matrix(2.3666 0 0 1.7265 32.726 -2.0128)" gradientUnits="userSpaceOnUse" xlink:href="#b"/>
 </defs>
 <g transform="translate(-24.103 17.602)">
  <path d="m24.60261,57.35913h79.51304a.5,.5 0 0,1 .5.5v65.25911a.5,.5 0 0,1 -.5.5h-79.51304a.5,.5 0 0,1 -.5-.5v-65.25911a.5,.5 0 0,1 .5-.5" fill="url(#ae)" fill-rule="evenodd"/>
  <path d="m24.60261,57.35913h79.51304a.5,.5 0 0,1 .5.5v65.25911a.5,.5 0 0,1 -.5.5h-79.51304a.5,.5 0 0,1 -.5-.5v-65.25911a.5,.5 0 0,1 .5-.5" fill="url(#ad)" fill-rule="evenodd" opacity=".03"/>
  <path d="m25.647 123.62c1.8101-2.1216 18.145-3.7862 38.655-3.7862 20.229 0 36.293 1.6472 38.484 3.7271-0.0308 3e-3 -0.0255 0.0592-0.0572 0.0592h-77.082z" fill-rule="evenodd" opacity=".5"/>
  <path d="m24.60261,57.35913h79.51304a.5,.5 0 0,1 .5.5v65.25911a.5,.5 0 0,1 -.5.5h-79.51304a.5,.5 0 0,1 -.5-.5v-65.25911a.5,.5 0 0,1 .5-.5" fill="url(#ac)" fill-rule="evenodd" opacity=".03"/>
  <path d="m24.60261,57.35913h79.51304a.5,.5 0 0,1 .5.5v65.25911a.5,.5 0 0,1 -.5.5h-79.51304a.5,.5 0 0,1 -.5-.5v-65.25911a.5,.5 0 0,1 .5-.5" fill="url(#ab)" fill-rule="evenodd" opacity=".03"/>
  <path d="m26.619 57.359c1.8101 2.1216 18.145 3.7862 38.655 3.7862 20.229 0 36.293-1.6472 38.484-3.7271-0.0308-0.0032-0.0255-0.05916-0.0572-0.05916h-77.082z" fill="#fff" fill-rule="evenodd" opacity=".5"/>
  <g transform="matrix(1.7195 0 0 1.9816 4.4209 1.4876)" fill-rule="evenodd">
   <path d="m13.971 30.767c-0.43954 2.6295-0.93088 19.309 0.69644 22.88 1.5919 3.4933 1.3929-16.667 5.273-19.84 3.9212-3.2069-5.5549-5.52-5.9695-3.04z" fill="url(#f)" opacity=".4028"/>
   <path d="m13.729 30.942c-0.50723 3.0697-1.0742 22.541 0.80369 26.71 1.837 4.0782 1.6074-19.457 6.0851-23.161 4.525-3.7437-6.4104-6.4441-6.8888-3.5489z" fill="url(#e)" opacity=".3"/>
   <path d="m13.232 31.092c-0.6303 3.4488-1.3349 25.325 0.99868 30.009 2.2827 4.5818 1.9974-21.86 7.5614-26.022 5.6229-4.206-7.9657-7.2399-8.5601-3.9872z" fill="url(#d)" opacity=".2"/>
  </g>
  <g transform="matrix(-1.7195 0 0 1.9816 124.3 1.4876)" fill-rule="evenodd">
   <path d="m13.971 30.767c-0.43954 2.6295-0.93088 19.309 0.69644 22.88 1.5919 3.4933 1.3929-16.667 5.273-19.84 3.9212-3.2069-5.5549-5.52-5.9695-3.04z" fill="url(#f)" opacity=".4028"/>
   <path d="m13.729 30.942c-0.50723 3.0697-1.0742 22.541 0.80369 26.71 1.837 4.0782 1.6074-19.457 6.0851-23.161 4.525-3.7437-6.4104-6.4441-6.8888-3.5489z" fill="url(#e)" opacity=".3"/>
   <path d="m13.232 31.092c-0.6303 3.4488-1.3349 25.325 0.99868 30.009 2.2827 4.5818 1.9974-21.86 7.5614-26.022 5.6229-4.206-7.9657-7.2399-8.5601-3.9872z" fill="url(#d)" opacity=".2"/>
  </g>
  <path d="m103.12 114.72v7.8872c0 0.55755-0.43214 1.0064-0.96891 1.0064h-75.575c-0.53678 0-0.96891-0.44886-0.96891-1.0064v-28.015c0 29.516 77.513-20.879 77.513 20.128z" fill="url(#aa)" fill-rule="evenodd" opacity=".25"/>
  <path transform="matrix(0 -1 1 0 1.7505 -1.159)" d="m-146.47 91.823h2.9201v2.7416h-2.9201z" fill="url(#p)"/>
  <g transform="translate(-48.857 6.9537)">
   <path d="m96.621 158.44c0 11.339 9.2065 20.535 20.546 20.535s20.535-9.196 20.535-20.535c0-8.1081-4.6142-14.38-11.533-18.456 0 0 3.1832-12.22 2.3634-12.615l-4.579-2.2105 0.42681-1.9541-5.0058-4.3309 0.67908-4.0741-10.949 0.0857-0.0463 14.06s-2.7583-0.3654-3.7814 0.12605c-0.55075 0.26454-1.7019 1.4632 0.20667 2.6301 2.3731 1.4509 3.0916 8.0735 3.0916 8.0735-7.0508 3.2553-11.954 10.394-11.954 18.666zm14.264 6.8696c0-3.3252 2.7933-6.0188 6.2394-6.0188s6.2499 2.6936 6.2499 6.0188-2.8038 6.0293-6.2499 6.0293-6.2394-2.7041-6.2394-6.0293z" fill="#928f81"/>
   <path transform="matrix(1.2164 0 0 1 -27.649 -22.957)" d="m125.38 138.24c0 0.52803-4.0971 0.95608-9.1511 0.95608s-9.1511-0.42805-9.1511-0.95608 4.0971-0.95608 9.1511-0.95608 9.1511 0.42805 9.1511 0.95608z"/>
   <path d="m96.335 159.12c0 11.339 9.2065 20.535 20.546 20.535s20.535-9.196 20.535-20.535c0-8.1081-4.6142-14.38-11.533-18.456 0 0 3.1948-12.214 2.3634-12.615l-4.579-2.2105 0.42681-1.9541-5.0058-4.3309 0.67908-4.0741-9.8614-0.0389-1.134 14.184s-2.7583-0.36539-3.7814 0.12605c-1.1015 0.52908 3.2983 10.704 3.2983 10.704-7.0508 3.2553-11.954 10.394-11.954 18.666zm14.264 6.8696c0-3.3252 2.7933-6.0188 6.2394-6.0188s6.2499 2.6936 6.2499 6.0188-2.8038 6.0293-6.2499 6.0293-6.2394-2.7041-6.2394-6.0293z" fill="#e2d7b9"/>
   <path d="m98.481 158.83c0 9.9336 8.0703 18.004 18.004 18.004s17.993-8.0702 17.993-18.004c0-5.323-2.3203-10.107-5.9978-13.403h-24.002c-3.6775 3.2957-5.9978 8.0801-5.9978 13.403zm11.712 7.2162c0-3.3252 2.7933-6.0188 6.2394-6.0188s6.2499 2.6936 6.2499 6.0188-2.8038 6.0293-6.2499 6.0293-6.2394-2.7041-6.2394-6.0293z" fill="url(#o)" stroke="url(#z)" stroke-linecap="round" stroke-linejoin="bevel" stroke-width=".42876"/>
   <path d="m110.6 129.86h3.0882v-11.335l-3.0882 0.40978v10.925z" fill="url(#y)" stroke="url(#x)" stroke-linecap="round" stroke-linejoin="bevel" stroke-width=".17681"/>
   <path d="m106.98 136.75s-2.4674-4.5992-2.4956-6.655c-3e-3 -0.22826 0.36946-0.43528 0.5942-0.47536 0.44396-0.0792 1.4855 0 1.4855 0l0.41594 7.1304z" fill="url(#w)" fill-rule="evenodd" opacity=".838"/>
   <path d="m121.08692,127.01065c0,0 4.63057-.35025 6.44263.62108 .20125.10777.79.95425.71617,1.17027-.14583.42674-.29957,1.97175-.29957,1.97175l-6.85923-3.7631z" fill="url(#v)" fill-rule="evenodd" opacity=".838"/>
  </g>
 </g>
 <g transform="matrix(.64651 0 0 1 -9.0355 -27.668)">
  <path d="m14.305 135.08v-15.288h40.203l83.458 0.39033v15.288l0.1356 13.727-83.593 1.171h-40.203z" fill="#fac800"/>
  <path d="m58.469 118.94v0.0312h-44.156v31.875h80.406v-0.0312h44.156v-31.875h-40.219zm78.625 2.1875 0.0937 10.938-17.844-10.969zm-39.156-0.1875 39.219 24.969 0.0366 3.1621-16.943-0.19333-44.062-27.781zm-55.031 0.0312h10.844l44.032 27.758-21.907 0.0546-43.844-27.656zm-26.719 4.5938 0.40625 0.1875 36.281 23.031-21.219 0.0312-15.531-9.8124-0.09375-13.312z" fill="#030200"/>
 </g>
 <path d="m97.489 2.6292c-18.957 0-34.218 16.307-34.218 34.909v37.528c0 14.089 8.7764 26.05 21.26 31.047-8.9449-4.0729-15.222-12.8-15.222-23.147v-47.404c0-14.225 11.67-26.621 26.167-26.621h4.0256c14.496 0 26.167 12.396 26.167 26.621v47.404c0 10.347-6.2771 19.074-15.222 23.147 12.484-4.9976 21.26-16.958 21.26-31.047v-37.528c0-18.602-15.261-34.909-34.218-34.909z" fill="url(#q)" fill-rule="evenodd" opacity=".65"/>
 <path d="m97.489 0.85394c-19.51 0-35.722 15.608-35.217 34.98l1.0675 40.963 5.75-4.395-0.60279-38.626c-0.23123-14.817 16.03-18.895 26.93-29.082l3.9453-4.3524 26.93 29.082-0.32973 25.049 5.885 0.07861 0.65946-23.07c0.55371-19.371-15.509-30.627-35.019-30.627z" fill="url(#r)" fill-rule="evenodd" opacity=".5"/>
 <path d="m97.489 0c-20.072 0-36.231 16.159-36.231 36.231v40.257h10.064v-40.257c0-14.496 11.67-26.167 26.167-26.167s26.167 11.67 26.167 26.167v18.43h10.064v-18.43c0-20.072-16.159-36.231-36.231-36.231z" fill="#282828" fill-rule="evenodd"/>
 <path d="m82.601 10.003c-5.4384 3.4052-8.4987 9.2101-7.8995 11.145 0.64564 2.085 4.4667-7.2336 15.283-10.119 8.3406-2.2253-5e-4 -5.6487-7.3837-1.0257z" fill="url(#i)" fill-rule="evenodd" opacity=".8"/>
 <path d="m112.38 9.9031c5.4384 3.4052 8.4987 9.2101 7.8995 11.145-0.64564 2.085-4.4667-7.2336-15.283-10.119-8.3406-2.2253 4.9e-4 -5.6487 7.3837-1.0257z" fill="url(#j)" fill-rule="evenodd" opacity=".8"/>
 <path d="m97.489 4.2794c-18.957 0-34.407 12.996-34.218 31.951l0.40031 40.112 5.7716 0.17851-0.13344-42.303c-0.04573-14.496 11.67-26.182 26.167-26.182h4.0256c14.496 0 25.09 7.9554 25.5 22.446l0.66719 23.622 6.9725 0.08837-0.93406-17.961c-0.9845-18.931-15.261-31.951-34.218-31.951z" fill="url(#s)" fill-rule="evenodd" opacity=".5"/>
 <path d="m97.489 2.0389c-26.762 0-32.938 23.315-32.938 33.86 0 31.634 2.0586 31.634 2.0586 0 0-23.199 16.463-32.355 30.879-32.355s30.982 10.103 30.879 32.355c-0.13734 29.529 1.6916 26.007 2.0586 0 0.1488-10.544-6.1758-33.86-32.937-33.86z" fill="url(#t)" fill-rule="evenodd" opacity=".8"/>
 <path d="m97.489 5.0913c-26.167 0-32.205 22.3-32.205 31.987 0 29.062 2.0128 29.062 2.0128 0 0-21.312 16.097-30.605 30.192-30.605s31.09 10.182 30.192 30.605c-1.0286 23.405 1.7261 27.485 2.0128 0 0.10104-9.6868-6.0385-31.987-32.205-31.987z" fill="url(#u)" fill-rule="evenodd" opacity=".6"/>
 <path d="m70.11 14.488c-2.8752 5.2482 3.0271 1.9311 4.398 0.27381 3.8539-4.659 10.368-8.0363 16.085-9.1385 4.7947-0.92436 5.5258-2.7757 1.5775-3.0822-7.8721-0.61105-19.304 6.9156-22.061 11.947z" fill="#fff" fill-rule="evenodd" opacity=".8"/>
 <path d="m65.754 23.156c0.30478 2.5648 5.2635-5.7978 9.1677-9.7237 4.7684-4.7948 11.996-8.1508 15.473-8.5942 6.1984-0.79048 3.2564-3.828-0.62867-3.0606-14.12 2.7892-24.79 14.838-24.013 21.379z" fill="#fff" fill-rule="evenodd" opacity=".6"/>
 <path d="m124.71 14.452c2.8946 5.2376-3.0199 1.9423-4.3969 0.29-3.871-4.6448-10.397-7.9981-16.119-9.0792-4.7981-0.9067-6.1484-2.7521-2.2014-3.0731 7.8698-0.64003 19.942 6.8412 22.717 11.862z" fill="#fff" fill-rule="evenodd" opacity=".8"/>
 <path d="m128.93 22.925c-0.29533 2.5659-5.2848-5.7784-9.2034-9.6899-4.786-4.7772-12.026-8.1066-15.505-8.5372-6.2013-0.76765-3.2924-3.6952 0.61676-3.0622 14.142 2.3014 24.845 14.746 24.092 21.289z" fill="#fff" fill-rule="evenodd" opacity=".6"/>
 <path d="m82.162 9.1383c-7.0895 4.049-11.079 10.951-10.298 13.252 0.84166 2.4791 5.8227-8.601 19.923-12.032 10.873-2.6459-6.4e-4 -6.7166-9.6253-1.2196z" fill="url(#k)" fill-rule="evenodd" opacity=".4"/>
 <path d="m112.67 8.9453c6.5408 4.1181 10.221 11.138 9.5008 13.478-0.77652 2.5214-5.3721-8.7479-18.381-12.238-10.031-2.6911 5.9e-4 -6.8312 8.8804-1.2405z" fill="url(#l)" fill-rule="evenodd" opacity=".4"/>
 <path transform="matrix(1 0 0 .75693 -23.33 22.988)" d="m156.8 42.226a4.917 2.1853 0 1 1 -9.834 0 4.917 2.1853 0 1 1 9.834 0z"/>
</svg>
